<!-- Medical Equipment placeholder SVG -->
<svg width="300" height="300" xmlns="http://www.w3.org/2000/svg">
  <defs>
    <linearGradient id="equipment-bg" x1="0%" y1="0%" x2="100%" y2="100%">
      <stop offset="0%" style="stop-color:#f0f9ff;stop-opacity:1" />
      <stop offset="100%" style="stop-color:#dbeafe;stop-opacity:1" />
    </linearGradient>
  </defs>
  <rect width="300" height="300" fill="url(#equipment-bg)"/>
  <g fill="#2563eb">
    <!-- Stethoscope -->
    <path d="M120 90 Q120 70 140 70 Q160 70 160 90 L160 140 Q160 160 140 160 Q120 160 120 140 Z" stroke="#2563eb" stroke-width="2" fill="none"/>
    <path d="M180 90 Q180 70 160 70 Q140 70 140 90 L140 140 Q140 160 160 160 Q180 160 180 140 Z" stroke="#2563eb" stroke-width="2" fill="none"/>
    <path d="M120 140 Q120 180 150 180 Q180 180 180 140" stroke="#2563eb" stroke-width="3" fill="none"/>
    <circle cx="190" cy="150" r="15" stroke="#2563eb" stroke-width="2" fill="none"/>
    <circle cx="190" cy="150" r="8" fill="#2563eb"/>
  </g>
  <text x="150" y="240" text-anchor="middle" fill="#2563eb" font-family="Arial, sans-serif" font-size="14">Medical Equipment</text>
</svg>
