<svg width="200" height="240" viewBox="0 0 200 240" xmlns="http://www.w3.org/2000/svg">
  <defs>
    <!-- Golden gradients -->
    <linearGradient id="goldGradient" x1="0%" y1="0%" x2="100%" y2="100%">
      <stop offset="0%" style="stop-color:#FFD700;stop-opacity:1" />
      <stop offset="30%" style="stop-color:#FFA500;stop-opacity:1" />
      <stop offset="70%" style="stop-color:#FF8C00;stop-opacity:1" />
      <stop offset="100%" style="stop-color:#DAA520;stop-opacity:1" />
    </linearGradient>
    
    <linearGradient id="darkGold" x1="0%" y1="0%" x2="100%" y2="100%">
      <stop offset="0%" style="stop-color:#B8860B;stop-opacity:1" />
      <stop offset="50%" style="stop-color:#DAA520;stop-opacity:1" />
      <stop offset="100%" style="stop-color:#8B7355;stop-opacity:1" />
    </linearGradient>

    <radialGradient id="crownGradient" cx="50%" cy="30%" r="70%">
      <stop offset="0%" style="stop-color:#FFD700;stop-opacity:1" />
      <stop offset="50%" style="stop-color:#FFA500;stop-opacity:1" />
      <stop offset="100%" style="stop-color:#B8860B;stop-opacity:1" />
    </radialGradient>

    <!-- Shadow filters -->
    <filter id="dropShadow" x="-50%" y="-50%" width="200%" height="200%">
      <feDropShadow dx="2" dy="4" stdDeviation="3" flood-color="#8B7355" flood-opacity="0.4"/>
    </filter>

    <filter id="innerShadow" x="-50%" y="-50%" width="200%" height="200%">
      <feOffset dx="0" dy="2"/>
      <feGaussianBlur stdDeviation="2" result="offset-blur"/>
      <feFlood flood-color="#B8860B" flood-opacity="0.6"/>
      <feComposite in2="offset-blur" operator="in"/>
    </filter>
  </defs>

  <!-- Royal Crown -->
  <g transform="translate(100, 30)" filter="url(#dropShadow)">
    <!-- Crown base -->
    <ellipse cx="0" cy="25" rx="35" ry="8" fill="url(#goldGradient)" />
    
    <!-- Crown body -->
    <path d="M -30 25 L -25 5 L -15 15 L 0 0 L 15 15 L 25 5 L 30 25 Z" 
          fill="url(#crownGradient)" stroke="url(#darkGold)" stroke-width="1.5"/>
    
    <!-- Crown details -->
    <circle cx="-20" cy="12" r="3" fill="#FFD700"/>
    <circle cx="0" cy="8" r="4" fill="#FFD700"/>
    <circle cx="20" cy="12" r="3" fill="#FFD700"/>
    
    <!-- Crown cross -->
    <g transform="translate(0, 0)">
      <rect x="-1.5" y="-8" width="3" height="12" fill="#FFD700"/>
      <rect x="-4" y="-5.5" width="8" height="3" fill="#FFD700"/>
      <circle cx="0" cy="-2" r="2" fill="#FFA500"/>
    </g>
  </g>

  <!-- Heraldic Shield -->
  <g transform="translate(100, 95)" filter="url(#dropShadow)">
    <!-- Shield outline -->
    <path d="M -40 0 Q -40 -15 -25 -25 L 25 -25 Q 40 -15 40 0 L 40 60 Q 40 75 25 85 L 0 95 L -25 85 Q -40 75 -40 60 Z" 
          fill="url(#goldGradient)" stroke="url(#darkGold)" stroke-width="2"/>
    
    <!-- Shield inner area -->
    <path d="M -35 5 Q -35 -10 -22 -18 L 22 -18 Q 35 -10 35 5 L 35 55 Q 35 68 22 76 L 0 85 L -22 76 Q -35 68 -35 55 Z" 
          fill="url(#crownGradient)" filter="url(#innerShadow)"/>

    <!-- Caduceus staff -->
    <line x1="0" y1="15" x2="0" y2="55" stroke="#FFD700" stroke-width="3"/>
    
    <!-- Caduceus wings -->
    <g transform="translate(0, 20)">
      <!-- Left wing -->
      <path d="M -2 5 Q -15 0 -20 -8 Q -18 -12 -12 -8 Q -8 -5 -5 0 Q -8 3 -12 0 Q -15 2 -10 8 Q -5 6 -2 5" 
            fill="url(#goldGradient)" stroke="url(#darkGold)" stroke-width="0.8"/>
      
      <!-- Right wing -->
      <path d="M 2 5 Q 15 0 20 -8 Q 18 -12 12 -8 Q 8 -5 5 0 Q 8 3 12 0 Q 15 2 10 8 Q 5 6 2 5" 
            fill="url(#goldGradient)" stroke="url(#darkGold)" stroke-width="0.8"/>
    </g>

    <!-- Caduceus snakes -->
    <g transform="translate(0, 25)">
      <!-- Left snake -->
      <path d="M -2 0 Q -8 5 -10 12 Q -8 18 -2 15 Q 2 12 0 8 Q -2 5 -2 0" 
            fill="none" stroke="#B8860B" stroke-width="2.5" stroke-linecap="round"/>
      
      <!-- Right snake -->
      <path d="M 2 8 Q 8 3 10 -4 Q 8 -10 2 -7 Q -2 -4 0 0 Q 2 3 2 8" 
            fill="none" stroke="#B8860B" stroke-width="2.5" stroke-linecap="round"/>
    </g>

    <!-- Caduceus orb -->
    <circle cx="0" cy="20" r="4" fill="url(#goldGradient)" stroke="url(#darkGold)" stroke-width="1"/>
  </g>

  <!-- Laurel Wreaths -->
  <!-- Left wreath -->
  <g transform="translate(60, 140)" filter="url(#dropShadow)">
    <path d="M 0 0 Q -5 -3 -8 0 Q -10 3 -8 6 Q -5 8 -2 6 Q 0 4 0 0" fill="url(#goldGradient)"/>
    <path d="M -2 8 Q -7 5 -10 8 Q -12 11 -10 14 Q -7 16 -4 14 Q -2 12 -2 8" fill="url(#goldGradient)"/>
    <path d="M -4 16 Q -9 13 -12 16 Q -14 19 -12 22 Q -9 24 -6 22 Q -4 20 -4 16" fill="url(#goldGradient)"/>
    <path d="M -6 24 Q -11 21 -14 24 Q -16 27 -14 30 Q -11 32 -8 30 Q -6 28 -6 24" fill="url(#goldGradient)"/>
    <path d="M -8 32 Q -13 29 -16 32 Q -18 35 -16 38 Q -13 40 -10 38 Q -8 36 -8 32" fill="url(#goldGradient)"/>
  </g>

  <!-- Right wreath -->
  <g transform="translate(140, 140)" filter="url(#dropShadow)">
    <path d="M 0 0 Q 5 -3 8 0 Q 10 3 8 6 Q 5 8 2 6 Q 0 4 0 0" fill="url(#goldGradient)"/>
    <path d="M 2 8 Q 7 5 10 8 Q 12 11 10 14 Q 7 16 4 14 Q 2 12 2 8" fill="url(#goldGradient)"/>
    <path d="M 4 16 Q 9 13 12 16 Q 14 19 12 22 Q 9 24 6 22 Q 4 20 4 16" fill="url(#goldGradient)"/>
    <path d="M 6 24 Q 11 21 14 24 Q 16 27 14 30 Q 11 32 8 30 Q 6 28 6 24" fill="url(#goldGradient)"/>
    <path d="M 8 32 Q 13 29 16 32 Q 18 35 16 38 Q 13 40 10 38 Q 8 36 8 32" fill="url(#goldGradient)"/>
  </g>

  <!-- Wreath base ribbon -->
  <g transform="translate(100, 195)" filter="url(#dropShadow)">
    <path d="M -25 0 Q -20 -3 0 -2 Q 20 -3 25 0 Q 20 3 0 2 Q -20 3 -25 0" 
          fill="url(#goldGradient)" stroke="url(#darkGold)" stroke-width="1"/>
    <path d="M -30 0 L -25 -5 L -20 0 L -25 5 Z" fill="url(#darkGold)"/>
    <path d="M 30 0 L 25 -5 L 20 0 L 25 5 Z" fill="url(#darkGold)"/>
  </g>
</svg>
