<?xml version="1.0" encoding="UTF-8"?>
<svg width="60" height="70" viewBox="0 0 60 70" fill="none" xmlns="http://www.w3.org/2000/svg">
  <defs>
    <linearGradient id="goldGradient" x1="0%" y1="0%" x2="100%" y2="100%">
      <stop offset="0%" style="stop-color:#FFD700;stop-opacity:1" />
      <stop offset="50%" style="stop-color:#FFA500;stop-opacity:1" />
      <stop offset="100%" style="stop-color:#DAA520;stop-opacity:1" />
    </linearGradient>
    <linearGradient id="shieldGradient" x1="0%" y1="0%" x2="100%" y2="100%">
      <stop offset="0%" style="stop-color:#B8860B;stop-opacity:1" />
      <stop offset="50%" style="stop-color:#DAA520;stop-opacity:1" />
      <stop offset="100%" style="stop-color:#8B7355;stop-opacity:1" />
    </linearGradient>
  </defs>
  
  <!-- Crown (simplified) -->
  <g transform="translate(30, 8)">
    <path d="M-12 8 L-10 3 L-5 5 L0 0 L5 5 L10 3 L12 8 Z" fill="url(#goldGradient)" stroke="#B8860B" stroke-width="0.5"/>
    <rect x="-0.5" y="-4" width="1" height="4" fill="url(#goldGradient)"/>
    <rect x="-1.5" y="-2" width="3" height="1" fill="url(#goldGradient)"/>
  </g>
  
  <!-- Shield -->
  <g transform="translate(30, 35)">
    <path d="M-15 -10 L-15 10 Q-15 18 0 23 Q15 18 15 10 L15 -10 Z" 
          fill="url(#shieldGradient)" 
          stroke="url(#goldGradient)" 
          stroke-width="1"/>
    
    <!-- Caduceus (simplified) -->
    <g transform="translate(0, 3)">
      <!-- Staff -->
      <rect x="-0.5" y="-8" width="1" height="15" fill="url(#goldGradient)"/>
      
      <!-- Wings -->
      <g transform="translate(0, -6)">
        <path d="M-0.5 0 Q-4 -2 -7 -1 Q-6 1 -4 0 Q-2 -0.5 -0.5 0" fill="url(#goldGradient)"/>
        <path d="M0.5 0 Q4 -2 7 -1 Q6 1 4 0 Q2 -0.5 0.5 0" fill="url(#goldGradient)"/>
      </g>
      
      <!-- Serpents (simplified) -->
      <path d="M-0.5 -4 Q-3 -3 -2 -1 Q-1 1 -3 3 Q-4 5 -2 6 Q0 7 0.5 5" 
            stroke="url(#goldGradient)" 
            stroke-width="1" 
            fill="none"/>
      <path d="M0.5 -4 Q3 -3 2 -1 Q1 1 3 3 Q4 5 2 6 Q0 7 -0.5 5" 
            stroke="url(#goldGradient)" 
            stroke-width="1" 
            fill="none"/>
      
      <!-- Top orb -->
      <circle cx="0" cy="-6" r="1" fill="url(#goldGradient)"/>
    </g>
  </g>
</svg>
